<?xml version="1.0" encoding="utf-8"?>
<!-- Generator: Adobe Illustrator 26.0.3, SVG Export Plug-In . SVG Version: 6.00 Build 0)  -->
<svg version="1.1"
	 id="Layer_1" xmlns:cc="http://creativecommons.org/ns#" xmlns:dc="http://purl.org/dc/elements/1.1/" xmlns:inkscape="http://www.inkscape.org/namespaces/inkscape" xmlns:rdf="http://www.w3.org/1999/02/22-rdf-syntax-ns#" xmlns:sodipodi="http://sodipodi.sourceforge.net/DTD/sodipodi-0.dtd" xmlns:svg="http://www.w3.org/2000/svg"
	 xmlns="http://www.w3.org/2000/svg" xmlns:xlink="http://www.w3.org/1999/xlink" x="0px" y="0px" viewBox="0 0 88 100"
	 style="enable-background:new 0 0 88 100;" xml:space="preserve">
<style type="text/css">
	.st0{fill:#FFFFFF;}
</style>
<sodipodi:namedview  bordercolor="#666666" borderopacity="1" gridtolerance="10" guidetolerance="10" id="namedview11" inkscape:current-layer="Layer_1" inkscape:cx="6.7025827" inkscape:cy="50" inkscape:pageopacity="0" inkscape:pageshadow="2" inkscape:window-height="1027" inkscape:window-maximized="1" inkscape:window-width="1920" inkscape:window-x="-8" inkscape:window-y="-8" inkscape:zoom="4.72" objecttolerance="10" pagecolor="#ffffff" showgrid="false">
	</sodipodi:namedview>
<g id="XMLID_3_">
	<path id="XMLID_16_" inkscape:connector-curvature="0" class="st0" d="M63.6,43.3c0-0.7,3-10.1-2.8-12.9c-6.8-3.2-8.7-5.9-8.6-10.1
		c0,0.2-4.1,6.8-1.5,10.1c4.2,5,2.4,9,0,8.6c-4-0.6-3.6-5.8-2.8-7.2c-2.1-0.2-4.6,1.1-5.8,2.8c-3.4,5,3.3,9.9,1.9,13.6
		c-0.1,0.3-0.2,0.5-0.4,0.7c-2.1,2.9-5.8-2.8-5.8-2.8C34,65.8,57.5,68.8,64.6,56.6c1-1.7,1.7-3.8,1.9-6.1c0.5-5.6,5.6-8.7,5.8-8.6
		C66.8,39.4,63.6,43.5,63.6,43.3z M53.5,59.1c-7.6,0.3-6.8-5.4-5.8-7.2c1.3-2.3,4.5-2.8,2.8-5.8c0,0.1,3.5,0.6,5.8,2.8
		C59.8,52.5,59.4,58.9,53.5,59.1z"/>
	<path id="XMLID_17_" inkscape:connector-curvature="0" class="st0" d="M59.3,27.5c1.1-0.9,1.5-1.8,1.5-2.8c0-0.8-0.9-1.9-1.5-2.8
		c-0.7-1.3,0.2-3.1,0-4.3c-1.7,1.4-2.8,2.8-2.8,4.3c0,0.8,0.5,1.9,1.5,2.8C58.9,25.8,59.2,27.1,59.3,27.5z"/>
</g>
<path class="st0" d="M52.8,65.9c-0.4,0.9-1,1.9-1.7,2.8c-1.5,1.7-3.6,3.1-6.2,4.2c-2.7,1-5.5,1.5-8.5,1.5c-1.5,0-3-0.1-4.5-0.4
	l-0.5-0.3l-2,1.1c-0.5,0.4-3.6,2.6-4.3,3l2.3-4.6l-1.9-1.5c-1.9-1.1-3.3-2.4-4.4-3.9c-1.1-1.5-1.5-3-1.5-4.6c0-2,0.8-3.8,2.3-5.6
	c1.5-1.7,3.6-3.1,6.2-4.2c1.9-0.7,3.9-1.2,6-1.4c0.2-1.3,0.7-2.6,1.4-3.8c-3.4,0.1-6.6,0.8-9.5,2c-3.2,1.3-5.7,3.2-7.6,5.5
	c-1.7,2.3-2.6,4.8-2.6,7.6c0,2.3,0.7,4.5,2.1,6.6c1.4,2.1,3.3,3.8,5.7,5.2c-0.2,0.5-0.4,0.9-0.6,1.3c-0.2,0.4-0.5,0.8-0.7,1.1
	s-0.5,0.7-0.7,0.9c-0.1,0.2-0.4,0.5-0.7,0.9c-0.3,0.4-0.6,0.6-0.7,0.7c0,0,0.1-0.1,0.1,0c-0.1,0.1-0.1,0.1-0.1,0.1S20,80,19.9,80
	c-0.1,0.1-0.1,0.1-0.1,0.1l-0.1,0.2c0,0.1-0.1,0.1-0.1,0.2c0,0.1,0,0.1,0,0.2c0,0.1,0,0.1,0,0.2c0.1,0.3,0.1,0.5,0.3,0.6
	c0.2,0.1,0.4,0.3,0.6,0.3h0.1c1-0.1,1.6-0.2,2.3-0.4c3-0.8,5.8-2.1,8.1-3.8c1.8,0.3,3.5,0.5,5.2,0.5c3.8,0,7.3-0.7,10.5-2
	c3.2-1.3,5.7-3.2,7.6-5.5c1.4-1.7,2.2-3.5,2.6-5.5C55.6,65.5,54.2,65.8,52.8,65.9z"/>
</svg>
