<?xml version="1.0" encoding="utf-8"?>
<!-- Generator: Adobe Illustrator 26.0.3, SVG Export Plug-In . SVG Version: 6.00 Build 0)  -->
<svg version="1.1"
	 id="Layer_1" xmlns:cc="http://creativecommons.org/ns#" xmlns:dc="http://purl.org/dc/elements/1.1/" xmlns:inkscape="http://www.inkscape.org/namespaces/inkscape" xmlns:rdf="http://www.w3.org/1999/02/22-rdf-syntax-ns#" xmlns:sodipodi="http://sodipodi.sourceforge.net/DTD/sodipodi-0.dtd" xmlns:svg="http://www.w3.org/2000/svg"
	 xmlns="http://www.w3.org/2000/svg" xmlns:xlink="http://www.w3.org/1999/xlink" x="0px" y="0px" viewBox="0 0 88 100"
	 style="enable-background:new 0 0 88 100;" xml:space="preserve">
<style type="text/css">
	.st0{fill:#FFFFFF;}
</style>
<sodipodi:namedview  bordercolor="#666666" borderopacity="1" gridtolerance="10" guidetolerance="10" id="namedview11" inkscape:current-layer="Layer_1" inkscape:cx="6.7025827" inkscape:cy="50" inkscape:pageopacity="0" inkscape:pageshadow="2" inkscape:window-height="1027" inkscape:window-maximized="1" inkscape:window-width="1920" inkscape:window-x="-8" inkscape:window-y="-8" inkscape:zoom="4.72" objecttolerance="10" pagecolor="#ffffff" showgrid="false">
	</sodipodi:namedview>
<path id="path4" class="st0" d="M17.6,41.7c0.7-0.1,1.2-0.7,1.7-1c2.2-1.5,4.4-3.1,6.6-4.6c0.2-0.1,0.5-0.5,0.7-0.3
	c0.3,0.1,0.1,0.6,0.1,0.7c0.1,0.8-0.5,2,0.2,2.4c0.7,0.6,1.7,0.1,2.6,0.2c2.2,0,4.3,0,6.5,0c2.2,0,3.7,1.5,3.7,3.8
	c0,8.1,0,16.1,0,24.2c0,0.7-0.2,0.9-0.9,0.9c-1.3-0.1-2.6,0-3.8,0c-0.6,0-0.7-0.1-0.7-0.7c0-0.2,0-0.3,0-0.6c0-7-0.1-13.9-0.1-20.9
	c0-1.3-0.2-1.5-1.5-1.5c-1.7,0-3.5,0-5.1,0c-0.6,0-0.8,0.2-0.7,0.7c0,0.8,0,1.9,0,2.9C23.7,46,20.6,44,17.6,41.7
	C17.6,41.9,17.6,41.8,17.6,41.7z"/>
<path id="path6" class="st0" d="M71.4,41.9c-3,2.1-6,4.2-9.2,6.4c-0.2-0.9-0.1-2-0.1-2.8c0-0.6-0.2-0.7-0.7-0.7c-1.9,0-3.7,0-5.5,0
	c-0.8,0-1.2,0.5-1.2,1.2c0,0.1,0,0.2,0,0.3c0,7-0.1,13.9-0.1,21c0,0.8-0.2,1-1,1c-1.2-0.1-2.3-0.1-3.6,0c-0.7,0-0.8-0.2-0.8-0.8
	c0-4.3,0-8.5,0-12.8c0-3.7,0-7.5,0-11.1c0-2.7,1.4-4.1,4.2-4.1c2.6,0,5.1,0,7.6,0c0.9,0,1.3-0.3,1.2-1.3c-0.1-0.5,0-0.9,0-1.5
	c0-0.2-0.1-0.7,0.1-0.7c0.3-0.1,0.6,0.2,0.7,0.3c2.4,1.7,5.1,3.6,7.5,5.2c0.2,0.2,0.5,0.5,0.8,0.5C71.4,41.8,71.4,41.9,71.4,41.9z"
	/>
<path id="path8" class="st0" d="M44.7,24.3c-0.1,0.5,0.3,0.7,0.6,0.9c1.7,2.3,3.4,4.9,5.1,7.2c0.2,0.3,0.3,0.6,0.7,1
	c-1,0-1.9,0-2.7,0c-0.7-0.1-0.9,0.2-0.9,0.9c0,2.7,0,5.5,0,8.1c0,8.1,0,16.2,0,24.2c0,0.8-0.1,1.3-1,1.2c-1-0.1-2.2-0.1-3.2,0
	c-0.9,0.1-1-0.3-1-1.2c0-8.2,0-16.6,0-24.8c0-2.6,0-5.1,0-7.8c0-0.7-0.1-0.8-0.8-0.8c-0.8,0-1.7,0-2.6,0c-0.1-0.6,0.2-0.7,0.5-1
	c1.7-2.4,3.5-4.9,5.1-7.3C44.3,24.8,44.7,24.5,44.7,24.3C44.4,24.3,44.6,24.3,44.7,24.3z"/>
</svg>
