<?xml version="1.0" encoding="utf-8"?>
<!-- Generator: Adobe Illustrator 25.4.1, SVG Export Plug-In . SVG Version: 6.00 Build 0)  -->
<svg version="1.1" id="Layer_1" xmlns="http://www.w3.org/2000/svg" xmlns:xlink="http://www.w3.org/1999/xlink" x="0px" y="0px"
	 viewBox="0 0 2500 2500" style="enable-background:new 0 0 2500 2500;" xml:space="preserve">
<style type="text/css">
	.st0{fill:#FF4A00;}
</style>
<path class="st0" d="M1458.7,1250.3c0,51.2-9.2,102.1-27.3,150c-48,18.1-98.8,27.3-150.1,27.3h-0.6c-52.8-0.1-103.4-9.7-150-27.3
	c-18.1-48-27.3-98.8-27.3-150.1v-0.6c0-51.2,9.2-102.1,27.3-150c48-18.1,98.8-27.4,150.1-27.3h0.6c51.3,0,102.1,9.2,150.1,27.3
	c18.1,47.9,27.3,98.8,27.3,150L1458.7,1250.3L1458.7,1250.3z M1981.8,1131.6H1567l293.3-293.3c-23-32.3-48.7-62.7-76.8-90.8v0
	c-28.1-28-58.4-53.7-90.7-76.7l-293.3,293.3V549.3c-39-6.6-78.5-9.9-118.1-9.9h-0.7c-40.2,0-79.7,3.4-118.1,9.9v414.8L869.3,670.8
	c-32.3,23-62.7,48.7-90.7,76.8l-0.2,0.1c-28,28-53.7,58.3-76.7,90.6l293.3,293.3H580.3c0,0-9.9,77.9-9.9,118.2v0.5
	c0,40.3,3.4,79.8,9.9,118.2h414.8l-293.3,293.3c46.1,64.8,102.8,121.4,167.5,167.5l293.3-293.3v414.8c39,6.5,78.4,9.8,117.9,9.9h1
	c39.5,0,79-3.3,117.9-9.9v-414.8l293.3,293.3c32.3-23,62.7-48.7,90.7-76.7l0.1-0.1c28-28.1,53.7-58.4,76.7-90.7l-293.3-293.3h414.8
	c6.5-38.4,9.8-77.7,9.9-117.9v-1C1991.6,1209.3,1988.2,1169.9,1981.8,1131.6L1981.8,1131.6z"/>
</svg>
