<?xml version="1.0" encoding="utf-8"?>
<!-- Generator: Adobe Illustrator 21.0.0, SVG Export Plug-In . SVG Version: 6.00 Build 0)  -->
<svg version="1.1" id="Layer_1" xmlns="http://www.w3.org/2000/svg" xmlns:xlink="http://www.w3.org/1999/xlink" x="0px" y="0px"
	 viewBox="0 0 154 15" style="enable-background:new 0 0 154 15;" xml:space="preserve">
<style type="text/css">
	.st0{fill:#293B5A;}
	.st1{fill:#F06B7C;}
</style>
<g>
	<path class="st0" d="M8.2,3.2v9.1c0,0.2-0.1,0.4-0.2,0.6c-0.2,0.2-0.4,0.2-0.6,0.2S7,13,6.8,12.9s-0.2-0.4-0.2-0.6V3.2H4.1
		C3.9,3.2,3.7,3.1,3.5,3C3.4,2.8,3.3,2.6,3.3,2.4c0-0.2,0.1-0.4,0.2-0.6c0.2-0.2,0.4-0.2,0.6-0.2h6.5c0.2,0,0.4,0.1,0.6,0.2
		c0.2,0.2,0.2,0.3,0.2,0.6c0,0.2-0.1,0.4-0.2,0.6c-0.2,0.1-0.4,0.2-0.6,0.2H8.2z"/>
	<path class="st0" d="M18.8,8.1l2.3,3.9c0.1,0.2,0.2,0.4,0.1,0.6S21,13,20.8,13.1s-0.4,0.1-0.6,0.1c-0.2-0.1-0.4-0.2-0.5-0.4
		l-2.8-4.7H14v4.3c0,0.2-0.1,0.4-0.2,0.6s-0.4,0.2-0.6,0.2s-0.4-0.1-0.6-0.2c-0.2-0.2-0.2-0.4-0.2-0.6v-5V7.3l0,0
		c0-0.2,0.1-0.4,0.2-0.6c0.2-0.2,0.4-0.2,0.6-0.2h5.4c0.3,0,0.6-0.1,0.9-0.3C19.7,6,19.9,5.8,20,5.6c0-0.3,0-0.5,0-0.7
		c0-0.3,0-0.5-0.1-0.7s-0.3-0.4-0.5-0.6c-0.2-0.2-0.5-0.3-0.9-0.3l0,0h-5.4c-0.2,0-0.4-0.1-0.6-0.2c-0.2-0.2-0.2-0.4-0.2-0.6
		s0.1-0.4,0.2-0.6c0.2-0.2,0.4-0.2,0.6-0.2h5.4c0.7,0,1.3,0.2,1.8,0.5c0.5,0.4,0.8,0.8,1,1.3c0.2,0.4,0.3,0.8,0.3,1.3
		c0,0.4-0.1,0.9-0.2,1.3c-0.2,0.5-0.5,0.9-0.9,1.3C20.1,7.8,19.5,8,18.8,8.1z"/>
	<path class="st0" d="M28.6,1.5c0.9,0,1.6,0.2,2.4,0.5c0.7,0.3,1.4,0.8,1.9,1.3c0.6,0.6,1,1.2,1.3,1.9s0.5,1.5,0.5,2.4
		c0,0.8-0.2,1.6-0.5,2.4c-0.3,0.7-0.8,1.4-1.3,2c-0.6,0.6-1.2,1-1.9,1.3c-0.7,0.3-1.5,0.5-2.4,0.5c-0.8,0-1.6-0.2-2.4-0.5
		c-0.7-0.3-1.4-0.7-2-1.3s-1-1.2-1.3-2c-0.3-0.7-0.5-1.5-0.5-2.4s0.2-1.6,0.5-2.4c0.3-0.7,0.7-1.4,1.3-1.9c0.6-0.6,1.2-1,2-1.3
		C27,1.7,27.8,1.5,28.6,1.5z M31.8,4.5c-0.4-0.4-0.9-0.7-1.4-1c-0.5-0.2-1.1-0.4-1.8-0.4c-0.6,0-1.2,0.1-1.7,0.4
		c-0.5,0.2-1,0.6-1.4,1s-0.7,0.9-1,1.4c-0.2,0.5-0.4,1.1-0.4,1.8c0,0.6,0.1,1.2,0.4,1.7c0.2,0.5,0.6,1,1,1.4s0.9,0.7,1.4,1
		c0.5,0.2,1.1,0.4,1.7,0.4s1.2-0.1,1.8-0.4c0.5-0.2,1-0.6,1.4-1c0.4-0.4,0.7-0.9,1-1.4c0.2-0.5,0.4-1.1,0.4-1.7s-0.1-1.2-0.4-1.8
		C32.5,5.3,32.2,4.9,31.8,4.5z"/>
	<path class="st0" d="M41.5,1.5c0.9,0,1.6,0.2,2.4,0.5c0.7,0.3,1.4,0.8,1.9,1.3c0.6,0.6,1,1.2,1.3,1.9s0.5,1.5,0.5,2.4
		c0,0.8-0.2,1.6-0.5,2.4c-0.3,0.7-0.8,1.4-1.3,2c-0.6,0.6-1.2,1-1.9,1.3s-1.5,0.5-2.4,0.5c-0.8,0-1.6-0.2-2.4-0.5
		c-0.7-0.3-1.4-0.7-2-1.3s-1-1.2-1.3-2c-0.3-0.7-0.5-1.5-0.5-2.4s0.2-1.6,0.5-2.4c0.3-0.7,0.7-1.4,1.3-1.9c0.6-0.6,1.2-1,2-1.3
		C39.8,1.7,40.6,1.5,41.5,1.5z M44.6,4.5c-0.4-0.4-0.9-0.7-1.4-1c-0.5-0.2-1.1-0.4-1.8-0.4c-0.6,0-1.2,0.1-1.7,0.4
		c-0.5,0.2-1,0.6-1.4,1s-0.7,0.9-1,1.4C37.1,6.4,37,7,37,7.6s0.1,1.2,0.4,1.7c0.2,0.5,0.6,1,1,1.4s0.9,0.7,1.4,1
		c0.5,0.2,1.1,0.4,1.7,0.4c0.6,0,1.2-0.1,1.8-0.4c0.5-0.2,1-0.6,1.4-1s0.7-0.9,1-1.4c0.2-0.5,0.4-1.1,0.4-1.7S46,6.4,45.7,5.8
		C45.3,5.3,45,4.9,44.6,4.5z"/>
	<path class="st0" d="M49.2,1.8c0.9,0,1.8,0,2.7,0s1.8,0,2.7,0c0.5,0,0.9,0.1,1.3,0.2c0.4,0.2,0.7,0.4,1,0.7s0.5,0.6,0.6,1
		c0.2,0.4,0.2,0.8,0.2,1.2s-0.1,0.9-0.2,1.2c-0.1,0.4-0.4,0.7-0.6,1s-0.6,0.5-1,0.7S55,8.1,54.6,8.1l0,0H50v4.3
		c0,0.2-0.1,0.4-0.2,0.6s-0.4,0.2-0.6,0.2s-0.4-0.1-0.6-0.2c-0.2-0.2-0.2-0.4-0.2-0.6V2.6c0-0.2,0.1-0.4,0.2-0.6
		C48.8,1.9,49,1.8,49.2,1.8z M50,3.4v3h4.5c0.3,0,0.6-0.1,0.9-0.3c0.2-0.2,0.4-0.4,0.5-0.6S56,5.1,56,4.9c0-0.3,0-0.5-0.1-0.7
		s-0.3-0.4-0.5-0.6c-0.2-0.2-0.5-0.3-0.9-0.3l0,0L50,3.4L50,3.4z"/>
</g>
<g>
	<path class="st1" d="M61.6,2.6c0-0.2,0-0.3,0.1-0.5s0.2-0.4,0.4-0.5s0.4-0.2,0.6-0.1c0.2,0,0.4,0.2,0.5,0.4l3.2,4.9l3-5
		c0.1-0.2,0.3-0.3,0.5-0.4s0.4,0,0.6,0.1c0.1,0.1,0.3,0.2,0.3,0.4c0.1,0.2,0.1,0.3,0,0.5c0,0,0,0.1,0,0.2v9.8c0,0.2-0.1,0.4-0.2,0.6
		c-0.2,0.2-0.4,0.2-0.6,0.2s-0.4-0.1-0.6-0.2s-0.2-0.4-0.2-0.6V5.2L67,8.8c-0.1,0.2-0.3,0.3-0.5,0.4c-0.2,0.1-0.4,0-0.6-0.1
		c-0.1,0-0.1-0.1-0.2-0.1l-0.1-0.1L63.1,5v7.5c0,0.2-0.1,0.4-0.2,0.6s-0.4,0.2-0.6,0.2s-0.4-0.1-0.6-0.2c-0.2-0.2-0.2-0.4-0.2-0.6
		L61.6,2.6L61.6,2.6z"/>
	<path class="st1" d="M80,1.7c0.2,0,0.4,0.1,0.6,0.2c0.2,0.2,0.3,0.4,0.3,0.6S80.8,3,80.6,3.1c-0.2,0.2-0.4,0.2-0.6,0.2h-4
		c-0.5,0-1,0.2-1.3,0.6s-0.6,0.9-0.8,1.5c-0.1,0.2-0.1,0.4-0.1,0.6s-0.1,0.4-0.1,0.6h4.6c0.2,0,0.4,0.1,0.6,0.2
		C79,7,79.1,7.2,79.1,7.5c0,0.2-0.1,0.4-0.2,0.6c-0.2,0.2-0.4,0.2-0.6,0.2h-4.6c0,0.3,0.1,0.6,0.2,0.9c0.2,0.7,0.4,1.2,0.8,1.7
		c0.4,0.4,0.8,0.7,1.3,0.7h4c0.2,0,0.4,0.1,0.6,0.2c0.2,0.2,0.3,0.4,0.3,0.6c0,0.2-0.1,0.4-0.3,0.6c-0.2,0.2-0.4,0.2-0.6,0.2h-4
		c-0.5,0-0.9-0.1-1.3-0.3s-0.8-0.5-1.1-0.8c-0.3-0.3-0.6-0.7-0.8-1.1c-0.2-0.4-0.4-0.9-0.5-1.4c-0.1-0.4-0.2-0.7-0.2-1.1
		C72,8.1,72,7.7,72,7.3c0-0.8,0.1-1.5,0.3-2.2c0.1-0.5,0.3-0.9,0.5-1.3s0.5-0.8,0.8-1c0.3-0.3,0.7-0.5,1-0.7
		c0.4-0.2,0.8-0.3,1.3-0.3l0,0H80V1.7z"/>
	<path class="st1" d="M85.6,6.6h2.6c0.5,0,0.9,0.1,1.3,0.2c0.4,0.2,0.7,0.4,1,0.7c0.3,0.3,0.5,0.6,0.7,1c0.2,0.4,0.2,0.8,0.2,1.3
		s-0.1,0.9-0.2,1.3c-0.2,0.4-0.4,0.8-0.7,1s-0.6,0.5-1,0.7s-0.8,0.3-1.3,0.3h-4.6c-0.2,0-0.4-0.1-0.6-0.3s-0.3-0.4-0.3-0.6
		c0-0.2,0.1-0.4,0.3-0.6c0.2-0.2,0.4-0.3,0.6-0.3h4.6c0.5,0,0.8-0.2,1.1-0.5c0.3-0.3,0.4-0.7,0.4-1.1c0-0.4-0.1-0.8-0.4-1.1
		s-0.6-0.5-1-0.5c-0.5,0-1,0-1.6,0c-0.5,0-1.1,0-1.6,0S84.2,8,83.8,7.8c-0.4-0.2-0.7-0.4-1-0.7c-0.3-0.3-0.5-0.6-0.7-1
		C82,5.9,81.9,5.4,81.9,5c0-0.5,0.1-0.9,0.2-1.3s0.4-0.7,0.7-1s0.6-0.5,1-0.7s0.8-0.2,1.3-0.2l0,0h4.2c0.2,0,0.4,0.1,0.6,0.3
		s0.3,0.4,0.3,0.6c0,0.2-0.1,0.4-0.3,0.6c-0.2,0.2-0.4,0.3-0.6,0.3h-4.2c-0.5,0-0.8,0.1-1.1,0.4s-0.4,0.5-0.4,1s0.1,0.8,0.4,1.1
		c0.3,0.3,0.6,0.5,1.1,0.5H85.6z"/>
	<path class="st1" d="M96.2,6.6h2.6c0.5,0,0.9,0.1,1.3,0.2c0.4,0.2,0.7,0.4,1,0.7c0.3,0.3,0.5,0.6,0.7,1c0.1,0.4,0.2,0.9,0.2,1.3
		c0,0.5-0.1,0.9-0.2,1.3c-0.2,0.4-0.4,0.8-0.7,1s-0.6,0.5-1,0.7s-0.8,0.3-1.3,0.3h-4.6c-0.2,0-0.4-0.1-0.6-0.3s-0.3-0.4-0.3-0.6
		c0-0.2,0.1-0.4,0.3-0.6c0.2-0.2,0.4-0.3,0.6-0.3h4.6c0.5,0,0.8-0.2,1.1-0.5c0.3-0.3,0.4-0.7,0.4-1.1c0-0.4-0.1-0.8-0.4-1.1
		s-0.6-0.5-1-0.5c-0.5,0-1,0-1.6,0c-0.5,0-1.1,0-1.6,0S94.8,8,94.4,7.8s-0.7-0.4-1-0.7c-0.3-0.3-0.5-0.6-0.7-1s-0.2-0.9-0.2-1.3
		c0-0.5,0.1-0.9,0.2-1.3s0.4-0.7,0.7-1s0.6-0.5,1-0.7s0.8-0.2,1.3-0.2l0,0h4.2c0.2,0,0.4,0.1,0.6,0.3s0.3,0.4,0.3,0.6
		c0,0.2-0.1,0.4-0.3,0.6c-0.2,0.2-0.4,0.3-0.6,0.3h-4.2c-0.5,0-0.8,0.1-1.1,0.4S94.2,4.5,94.2,5s0.1,0.8,0.4,1.1
		c0.3,0.3,0.6,0.5,1.1,0.5H96.2z"/>
	<path class="st1" d="M111.1,1.7c0.2,0,0.4,0.1,0.6,0.2c0.2,0.2,0.3,0.4,0.3,0.6s-0.1,0.4-0.3,0.6c-0.2,0.2-0.4,0.2-0.6,0.2h-4
		c-0.5,0-1,0.2-1.3,0.6s-0.6,0.9-0.8,1.5c-0.1,0.2-0.1,0.4-0.1,0.6s-0.1,0.4-0.1,0.6h4.6c0.2,0,0.4,0.1,0.6,0.2
		c0.2,0.2,0.2,0.4,0.2,0.6S110.1,7.8,110,8c-0.2,0.2-0.4,0.2-0.6,0.2h-4.6c0,0.3,0.1,0.6,0.2,0.9c0.2,0.7,0.4,1.2,0.8,1.7
		c0.4,0.4,0.8,0.7,1.3,0.7h4c0.2,0,0.4,0.1,0.6,0.2c0.2,0.2,0.3,0.4,0.3,0.6c0,0.2-0.1,0.4-0.3,0.6c-0.2,0.2-0.4,0.2-0.6,0.2h-4
		c-0.5,0-0.9-0.1-1.3-0.3s-0.8-0.5-1.1-0.8c-0.3-0.3-0.6-0.7-0.8-1.1c-0.2-0.4-0.4-0.9-0.5-1.4c-0.1-0.4-0.2-0.7-0.2-1.1
		c0-0.4-0.1-0.8-0.1-1.1c0-0.8,0.1-1.5,0.3-2.2c0.1-0.5,0.3-0.9,0.5-1.3s0.5-0.8,0.8-1c0.3-0.3,0.7-0.5,1-0.7
		c0.4-0.2,0.8-0.3,1.3-0.3l0,0L111.1,1.7L111.1,1.7z"/>
	<path class="st1" d="M112.9,2.6c0-0.2,0.1-0.4,0.2-0.6c0.2-0.2,0.4-0.2,0.6-0.2h0.1c0.3,0,0.5,0.1,0.7,0.3l6.4,8V2.6
		c0-0.2,0.1-0.4,0.2-0.6c0.2-0.2,0.4-0.2,0.6-0.2s0.4,0.1,0.6,0.2c0.2,0.2,0.2,0.4,0.2,0.6v9.8c0,0.2-0.1,0.4-0.2,0.6
		s-0.4,0.2-0.6,0.2c-0.3,0-0.5-0.1-0.6-0.3l-0.1-0.1l-6.5-8.1v7.6c0,0.2-0.1,0.4-0.2,0.6s-0.4,0.2-0.6,0.2s-0.4-0.1-0.6-0.2
		s-0.2-0.4-0.2-0.6V2.6z"/>
	<path class="st1" d="M128.1,8.4c-0.2,0-0.4-0.1-0.6-0.2c-0.2-0.2-0.2-0.4-0.2-0.6s0.1-0.4,0.2-0.6c0.2-0.2,0.4-0.2,0.6-0.2h3.6
		c0.2,0,0.4,0.1,0.6,0.2c0.2,0.2,0.2,0.4,0.2,0.6l0,0v4.7l0,0l0,0c0,0.2-0.1,0.4-0.2,0.6s-0.4,0.2-0.6,0.2c-0.1,0-0.1,0-0.1,0h-0.1
		h-4.1l0,0l0,0c-0.5,0-1-0.1-1.4-0.3s-0.8-0.4-1.1-0.8c-0.3-0.3-0.6-0.7-0.8-1.1c-0.2-0.4-0.4-0.9-0.6-1.4c-0.2-0.7-0.3-1.5-0.3-2.3
		s0.1-1.5,0.3-2.3c0.1-0.5,0.3-0.9,0.6-1.3c0.2-0.4,0.5-0.8,0.8-1.1s0.7-0.5,1.1-0.7s0.9-0.3,1.4-0.3h4.4c0.2,0,0.4,0.1,0.6,0.2
		c0.2,0.2,0.2,0.4,0.2,0.6s-0.1,0.4-0.2,0.6s-0.4,0.2-0.6,0.2h-4.4c-0.6,0-1.1,0.2-1.5,0.6s-0.7,0.9-0.9,1.6
		c-0.1,0.3-0.1,0.6-0.2,0.9s-0.1,0.6-0.1,0.9c0,0.6,0.1,1.2,0.2,1.8c0.2,0.7,0.5,1.2,0.9,1.7s0.9,0.7,1.5,0.7h3.6v-3h-2.8V8.4z"/>
	<path class="st1" d="M141.6,1.7c0.2,0,0.4,0.1,0.6,0.2c0.2,0.2,0.3,0.4,0.3,0.6s-0.1,0.4-0.3,0.6c-0.2,0.2-0.4,0.2-0.6,0.2h-4
		c-0.5,0-1,0.2-1.3,0.6s-0.6,0.9-0.8,1.5c-0.1,0.2-0.1,0.4-0.1,0.6s-0.1,0.4-0.1,0.6h4.6c0.2,0,0.4,0.1,0.6,0.2
		c0.2,0.2,0.2,0.4,0.2,0.6s-0.1,0.4-0.2,0.6c-0.2,0.2-0.4,0.2-0.6,0.2h-4.6c0,0.3,0.1,0.6,0.2,0.9c0.2,0.7,0.4,1.2,0.8,1.7
		c0.4,0.4,0.8,0.7,1.3,0.7h4c0.2,0,0.4,0.1,0.6,0.2c0.2,0.2,0.3,0.4,0.3,0.6c0,0.2-0.1,0.4-0.3,0.6c-0.2,0.2-0.4,0.2-0.6,0.2h-4
		c-0.5,0-0.9-0.1-1.3-0.3c-0.4-0.2-0.8-0.5-1.1-0.8s-0.6-0.7-0.8-1.1c-0.2-0.4-0.4-0.9-0.5-1.4c-0.1-0.4-0.2-0.7-0.2-1.1
		c0-0.4-0.1-0.8-0.1-1.1c0-0.8,0.1-1.5,0.3-2.2c0.1-0.5,0.3-0.9,0.5-1.3s0.5-0.8,0.8-1c0.3-0.3,0.7-0.5,1-0.7
		c0.4-0.2,0.8-0.3,1.3-0.3l0,0L141.6,1.7L141.6,1.7z"/>
	<path class="st1" d="M149.9,8.1l2.3,3.9c0.1,0.2,0.2,0.4,0.1,0.6c-0.1,0.2-0.2,0.4-0.4,0.5s-0.4,0.1-0.6,0.1
		c-0.2-0.1-0.4-0.2-0.5-0.4L148,8.1h-2.9v4.3c0,0.2-0.1,0.4-0.2,0.6s-0.4,0.2-0.6,0.2s-0.4-0.1-0.6-0.2s-0.2-0.4-0.2-0.6v-5V7.3l0,0
		c0-0.2,0.1-0.4,0.2-0.6s0.4-0.2,0.6-0.2h5.4c0.3,0,0.6-0.1,0.8-0.3c0.2-0.2,0.4-0.4,0.5-0.6s0.1-0.4,0.1-0.7c0-0.3,0-0.5-0.1-0.7
		s-0.3-0.4-0.5-0.6c-0.2-0.2-0.5-0.3-0.8-0.3l0,0h-5.4c-0.2,0-0.4-0.1-0.6-0.2s-0.2-0.4-0.2-0.6s0.1-0.4,0.2-0.6
		c0.2-0.2,0.4-0.2,0.6-0.2h5.4c0.7,0,1.3,0.2,1.8,0.5c0.5,0.4,0.8,0.8,1,1.3c0.2,0.4,0.3,0.8,0.3,1.3c0,0.4-0.1,0.9-0.2,1.3
		c-0.2,0.5-0.5,0.9-0.9,1.3S150.6,8,149.9,8.1z"/>
</g>
</svg>
