<?xml version="1.0" encoding="utf-8"?>
<!-- Generator: Adobe Illustrator 26.0.3, SVG Export Plug-In . SVG Version: 6.00 Build 0)  -->
<svg version="1.1"
	 id="Layer_1" xmlns:cc="http://creativecommons.org/ns#" xmlns:dc="http://purl.org/dc/elements/1.1/" xmlns:inkscape="http://www.inkscape.org/namespaces/inkscape" xmlns:rdf="http://www.w3.org/1999/02/22-rdf-syntax-ns#" xmlns:sodipodi="http://sodipodi.sourceforge.net/DTD/sodipodi-0.dtd" xmlns:svg="http://www.w3.org/2000/svg"
	 xmlns="http://www.w3.org/2000/svg" xmlns:xlink="http://www.w3.org/1999/xlink" x="0px" y="0px" viewBox="0 0 88 100"
	 style="enable-background:new 0 0 88 100;" xml:space="preserve">
<style type="text/css">
	.st0{fill:#FFFFFF;}
	.st1{fill-rule:evenodd;clip-rule:evenodd;fill:#F36F21;stroke:#FFFFFF;stroke-miterlimit:10;}
</style>
<sodipodi:namedview  bordercolor="#666666" borderopacity="1" gridtolerance="10" guidetolerance="10" id="namedview11" inkscape:current-layer="Layer_1" inkscape:cx="6.7025827" inkscape:cy="50" inkscape:pageopacity="0" inkscape:pageshadow="2" inkscape:window-height="1027" inkscape:window-maximized="1" inkscape:window-width="1920" inkscape:window-x="-8" inkscape:window-y="-8" inkscape:zoom="4.72" objecttolerance="10" pagecolor="#ffffff" showgrid="false">
	</sodipodi:namedview>
<path class="st0" d="M71,48c0-14.5-11.9-26.3-26.5-26.3S18,33.6,18,48c0,7.7,3.3,14.6,8.6,19.4l0,0l0.9,0.7c0.1,0,0.1,0.1,0.2,0.1
	c0.4,0.3,0.9,0.8,1.4,1.1c0.1,0.1,0.3,0.2,0.4,0.3c0.6,0.3,1,0.7,1.6,1c0.1,0.1,0.2,0.1,0.3,0.2c0.6,0.3,1.2,0.7,1.8,0.9
	c0,0,0.1,0,0.1,0.1c2,0.9,4.1,1.6,6.5,2c0.1,0,0.1,0,0.2,0c0.7,0.1,1.4,0.2,2.1,0.3c0.1,0,0.2,0,0.2,0c0.7,0.1,1.4,0.1,2.1,0.1
	s1.4,0,2.1-0.1c0.1,0,0.2,0,0.2,0c0.7-0.1,1.4-0.1,2.1-0.2c0.1,0,0.1,0,0.2,0c2.2-0.4,4.3-1.1,6.3-2c0.1,0,0.1-0.1,0.2-0.1
	c0.6-0.2,1.2-0.6,1.8-0.9c0.1-0.1,0.3-0.1,0.4-0.2c0.6-0.3,1-0.7,1.6-1c0.2-0.1,0.3-0.2,0.6-0.3c0.4-0.3,0.9-0.7,1.2-0.9
	c0.1-0.1,0.2-0.1,0.2-0.2l0.9-0.8l0,0C67.7,62.6,71,55.7,71,48z M19.9,48c0-13.5,11-24.4,24.6-24.4S69,34.6,69,48
	c0,7.2-3.2,13.8-8.2,18.2c-0.3-0.2-0.6-0.3-0.9-0.6l-8.1-4c-0.8-0.3-1.2-1.1-1.2-1.9V57c0.2-0.2,0.3-0.4,0.6-0.8
	c1.1-1.4,1.9-3.1,2.6-4.9c1.2-0.6,2-1.8,2-3.1v-3.3c0-0.8-0.3-1.7-0.9-2.2v-4.5c0-0.4,0.2-3.3-1.8-5.6c-1.8-2-4.7-3-8.6-3
	s-6.8,1-8.6,3c-2,2.3-1.9,5.1-1.8,5.6v4.5c-0.6,0.7-0.9,1.4-0.9,2.2v3.3c0,1,0.4,2,1.3,2.7c0.8,3,2.3,5.3,3,6.1v2.7
	c0,0.8-0.4,1.4-1.1,1.9l-7.7,4.1c-0.2,0.1-0.4,0.3-0.8,0.4C23.1,61.7,19.9,55.3,19.9,48z M58.9,67.7c-0.3,0.2-0.7,0.4-1,0.7
	c-0.1,0.1-0.3,0.2-0.4,0.3c-0.4,0.3-0.9,0.6-1.4,0.8c-0.1,0-0.2,0.1-0.3,0.1c-1.1,0.6-2.2,1-3.3,1.4h-0.1c-0.6,0.2-1.2,0.3-1.9,0.6
	l0,0c-0.7,0.1-1.2,0.3-1.9,0.3l0,0c-0.6,0.1-1.2,0.1-1.8,0.2c-0.1,0-0.2,0-0.3,0c-0.6,0-1.2,0.1-1.8,0.1c-0.6,0-1.2,0-1.8-0.1
	c-0.1,0-0.2,0-0.3,0c-0.6,0-1.2-0.1-1.8-0.2c0,0,0,0-0.1,0c-1.2-0.2-2.6-0.6-3.8-0.9h-0.1c-0.6-0.2-1.2-0.4-1.8-0.7l0,0
	c-0.6-0.2-1.1-0.6-1.7-0.8c-0.1,0-0.1-0.1-0.2-0.1c-0.4-0.2-1-0.6-1.4-0.9c-0.1-0.1-0.3-0.2-0.4-0.2c-0.4-0.3-0.9-0.6-1.3-0.9
	l-0.1-0.1h0.1l7.7-4.1c1.3-0.7,2.1-2.1,2.1-3.6v-3.4L39.3,56c0,0-2.1-2.6-2.9-5.9l-0.1-0.4L36,49.5c-0.4-0.3-0.8-0.8-0.8-1.3v-3.3
	c0-0.4,0.2-0.9,0.6-1.2l0.3-0.3v-5.3v-0.1c0,0-0.3-2.3,1.3-4.1c1.4-1.6,3.8-2.3,7.1-2.3s5.7,0.8,7.1,2.3c1.7,1.8,1.3,4.1,1.3,4.2
	v5.5l0.3,0.3c0.3,0.3,0.6,0.8,0.6,1.2v3.3c0,0.7-0.4,1.3-1.1,1.6l-0.4,0.1l-0.1,0.4c-0.6,1.8-1.3,3.3-2.4,4.8
	c-0.2,0.3-0.4,0.7-0.7,0.9l-0.2,0.2v3.6c0,1.6,0.9,2.9,2.2,3.6l8.1,4c0,0,0.1,0,0.1,0.1C59.1,67.6,59,67.7,58.9,67.7z"/>
<path id="XMLID_6_" class="st1" d="M63.2,59.4c3.8,0,6.9,3,6.9,6.8c0,3.8-3.1,6.8-6.9,6.8c-3.8,0-6.9-3-6.9-6.8
	C56.4,62.5,59.5,59.4,63.2,59.4z"/>
</svg>
