<?xml version="1.0" encoding="utf-8"?>
<!-- Generator: Adobe Illustrator 26.3.1, SVG Export Plug-In . SVG Version: 6.00 Build 0)  -->
<svg version="1.1" id="Layer_1" xmlns="http://www.w3.org/2000/svg" xmlns:xlink="http://www.w3.org/1999/xlink" x="0px" y="0px"
	 viewBox="0 0 46.1 49.3" style="enable-background:new 0 0 46.1 49.3;" xml:space="preserve">
<style type="text/css">
	.st0{fill:#FFFFFF;}
</style>
<g>
	<path class="st0" d="M28.1,15.9c-0.5-0.5-1.4-0.5-1.9,0l-10,9.8l-4.3-4.5c-0.5-0.5-1.4-0.6-1.9,0c-0.5,0.5-0.6,1.4,0,1.9
		c0,0,0,0,0,0l5.3,5.5c0.3,0.3,0.6,0.4,1,0.4h0c0.4,0,0.7-0.1,0.9-0.4l10.9-10.8C28.6,17.2,28.6,16.4,28.1,15.9z"/>
	<path class="st0" d="M23.3,28.6c0.3,0.3,0.6,0.4,1,0.4h0c0.4,0,0.7-0.1,0.9-0.4l10.9-10.8c0.5-0.6,0.4-1.4-0.1-1.9
		c-0.5-0.4-1.3-0.5-1.8,0l-10,9.8L24,25.3c-0.5-0.5-1.4-0.6-1.9,0c-0.5,0.5-0.6,1.4,0,1.9c0,0,0,0,0,0L23.3,28.6z"/>
</g>
</svg>
