<svg xmlns="http://www.w3.org/2000/svg" width="55" height="60" viewBox="0 0 55 60">
  <metadata><?xpacket begin="﻿" id="W5M0MpCehiHzreSzNTczkc9d"?>
<x:xmpmeta xmlns:x="adobe:ns:meta/" x:xmptk="Adobe XMP Core 5.6-c138 79.159824, 2016/09/14-01:09:01        ">
   <rdf:RDF xmlns:rdf="http://www.w3.org/1999/02/22-rdf-syntax-ns#">
      <rdf:Description rdf:about=""/>
   </rdf:RDF>
</x:xmpmeta>
                                                                                                    
                                                                                                    
                                                                                                    
                                                                                                    
                                                                                                    
                                                                                                    
                                                                                                    
                                                                                                    
                                                                                                    
                                                                                                    
                                                                                                    
                                                                                                    
                                                                                                    
                                                                                                    
                                                                                                    
                                                                                                    
                                                                                                    
                                                                                                    
                                                                                                    
                                                                                                    
                           
<?xpacket end="w"?></metadata>
<defs>
    <style>
      .cls-1 {
        fill: #74819f;
        fill-rule: evenodd;
      }
    </style>
  </defs>
  <path class="cls-1" d="M1149.5,392h-5v-2h2a1,1,0,0,0,1-1,15.017,15.017,0,0,0-15-15h-20a15.017,15.017,0,0,0-15,15,1,1,0,0,0,1,1h2v34h-2a1,1,0,0,0-1,1,9.012,9.012,0,0,0,9,9h32a9.012,9.012,0,0,0,9-9,1,1,0,0,0-1-1h-2V398h5A3,3,0,0,0,1149.5,392Zm-37-13a1,1,0,0,1,1-1h18a1,1,0,0,1,1,1v6a1,1,0,0,1-1,1h-18a1,1,0,0,1-1-1v-6Zm18,11v5.06a2.944,2.944,0,0,1-2.94,2.94h-10.12a2.944,2.944,0,0,1-2.94-2.94V390h16Zm6,40h-28a1,1,0,0,1,0-2h28A1,1,0,0,1,1136.5,430Zm-2.11-19.947c-0.04.365-.08,0.728-0.14,1.088l-0.03.243c-0.07.381-.14,0.761-0.22,1.135-0.01.026-.01,0.054-0.02,0.082a18.324,18.324,0,0,1-2.31,5.691,0.229,0.229,0,0,0-.04.065c-0.18.279-.37,0.545-0.56,0.808-2.18,2.974-5.21,4.835-8.57,4.835-6.36,0-11.59-6.641-11.98-15h23.96C1134.46,409.355,1134.42,409.7,1134.39,410.052Zm0.37,6.618c0.1-.241.19-0.491,0.29-0.738,0.11-.307.24-0.609,0.34-0.925,0.19-.576.36-1.168,0.5-1.773,0.03-.115.05-0.233,0.07-0.349q0.18-.8.3-1.638c0-.039.02-0.077,0.02-0.115,2.22,0.349,2.22,1.355,2.22,1.867,0,2.089-2.61,4.816-4.74,5.706,0.08-.145.15-0.3,0.23-0.452,0.1-.193.2-0.391,0.3-0.589C1134.45,417.336,1134.62,417.009,1134.76,416.67ZM1142.5,424h-13.62a14.489,14.489,0,0,0,3.3-3.03c0.11,0.007.21,0.03,0.32,0.03,3.16,0,8-4.291,8-8,0-1.526-.74-3.36-4.05-3.855,0.02-.38.05-0.758,0.05-1.144a1,1,0,0,0-1-1h-26a1,1,0,0,0-1,1c0,6.966,3.1,13.008,7.62,16H1102.5V390h10v5.06a4.95,4.95,0,0,0,3,4.541v1.893a2.513,2.513,0,0,0,2.51,2.506h0.98a2.507,2.507,0,0,0,2.51-2.506V400h2v1.494a2.507,2.507,0,0,0,2.51,2.506h0.98a2.513,2.513,0,0,0,2.51-2.506V399.6a4.943,4.943,0,0,0,2.9-3.6h1.28a3.009,3.009,0,0,0,2.82,2h6v26h0Zm0-32h-6a3.009,3.009,0,0,0-2.82,2h-1.18v-4h10v2Zm-28-12h16v4h-16v-4Zm-1.35,34.212c0,4.5,4,8.174,6.03,8.155l7.42-.069c2.03-.019,4.34-3.694,4.34-7.494,0,0-2.66-2.02-8.7-.3C1116.35,416.192,1113.15,414.213,1113.15,414.213Z" transform="translate(-1097.5 -374)"/>
</svg>
