<svg xmlns="http://www.w3.org/2000/svg" width="75" height="50.938" viewBox="0 0 75 50.938">
  <metadata><?xpacket begin="﻿" id="W5M0MpCehiHzreSzNTczkc9d"?>
<x:xmpmeta xmlns:x="adobe:ns:meta/" x:xmptk="Adobe XMP Core 5.6-c138 79.159824, 2016/09/14-01:09:01        ">
   <rdf:RDF xmlns:rdf="http://www.w3.org/1999/02/22-rdf-syntax-ns#">
      <rdf:Description rdf:about=""/>
   </rdf:RDF>
</x:xmpmeta>
                                                                                                    
                                                                                                    
                                                                                                    
                                                                                                    
                                                                                                    
                                                                                                    
                                                                                                    
                                                                                                    
                                                                                                    
                                                                                                    
                                                                                                    
                                                                                                    
                                                                                                    
                                                                                                    
                                                                                                    
                                                                                                    
                                                                                                    
                                                                                                    
                                                                                                    
                                                                                                    
                           
<?xpacket end="w"?></metadata>
<defs>
    <style>
      .cls-1 {
        fill: #74819f;
        fill-rule: evenodd;
      }
    </style>
  </defs>
  <path class="cls-1" d="M804.723,403.185a0.918,0.918,0,0,0-1.568.954,19.018,19.018,0,0,1,2.762,9.886,13.436,13.436,0,0,1-2.655,8.5,0.917,0.917,0,1,0,1.444,1.131,15.214,15.214,0,0,0,3.045-9.634A20.86,20.86,0,0,0,804.723,403.185Zm-4.8-5.467a0.918,0.918,0,1,0-1.148,1.432,19.207,19.207,0,0,1,1.749,1.589,0.917,0.917,0,1,0,1.314-1.28A21.338,21.338,0,0,0,799.922,397.718Zm-43.123-.212c-0.291-.167-0.591-0.325-0.891-0.47a0.918,0.918,0,0,0-.795,1.654c0.259,0.125.519,0.262,0.771,0.407A0.918,0.918,0,0,0,756.8,397.506Zm5.892,7.284a0.917,0.917,0,0,0,.345-1.251,14.172,14.172,0,0,0-4.044-4.458,0.918,0.918,0,0,0-1.08,1.484,12.361,12.361,0,0,1,3.528,3.879A0.916,0.916,0,0,0,762.691,404.79Zm49.376-7.243a10.485,10.485,0,0,0-5.59,1.6,24.9,24.9,0,0,0-16.316-9.355,4.179,4.179,0,1,0-6.588,0,24.955,24.955,0,0,0-18.294,12.285,20.608,20.608,0,0,0-16.188-9.554,0.918,0.918,0,0,0-.973.859l-0.451,7.277a0.917,0.917,0,0,0,.859.972,8.6,8.6,0,0,1,8.049,9.117,11.594,11.594,0,0,0,2.9,8.443,11.731,11.731,0,0,0,3.854,2.867,16.32,16.32,0,0,0,6.06,7.429,22.278,22.278,0,0,0,5.329,2.635h-6.5a0.918,0.918,0,0,0,0,1.835h37.3a0.918,0.918,0,1,0,0-1.835h-6.5a22.3,22.3,0,0,0,5.329-2.635,16.527,16.527,0,0,0,5.329-5.862,5.731,5.731,0,0,0,2.391.544c6.112,0,10.58-10.546,10.58-16.035A10.594,10.594,0,0,0,812.067,397.547Zm-15.143-3.831H776.811A23.045,23.045,0,0,1,796.924,393.716Zm-12.4-6.491a2.344,2.344,0,1,1,2.344,2.345A2.347,2.347,0,0,1,784.523,387.225ZM760.85,417.973a9.762,9.762,0,0,1-2.443-7.114,10.438,10.438,0,0,0-8.855-10.967l0.339-5.462a18.788,18.788,0,0,1,14.394,9.559,24.77,24.77,0,0,0-2.32,10.492,21.836,21.836,0,0,0,.547,4.988A9.8,9.8,0,0,1,760.85,417.973Zm42.458,10c-3.948,2.714-9.634,4.148-16.441,4.148s-12.492-1.434-16.44-4.148c-4.4-3.021-6.627-7.56-6.627-13.49a23.065,23.065,0,0,1,9.891-18.929h26.353a23.065,23.065,0,0,1,9.891,18.929C809.935,420.411,807.706,424.949,803.308,427.971Zm8.759-5.64a3.933,3.933,0,0,1-1.621-.375,20.111,20.111,0,0,0,1.324-7.475,24.773,24.773,0,0,0-4.212-13.847,8.745,8.745,0,0,1,13.254,7.5,20.812,20.812,0,0,1-2.712,9.112C816.283,420.476,814.084,422.331,812.067,422.331Zm-47.132-10.644c0,10.047,8.937,18.244,13.461,18.2l16.565-.154c4.524-.042,9.684-8.244,9.684-16.726,0,0-5.954-4.509-19.421-.661C772.079,416.105,764.935,411.687,764.935,411.687Z" transform="translate(-747.656 -383.031)"/>
</svg>
