<?xml version="1.0" encoding="utf-8"?>
<!-- Generator: Adobe Illustrator 26.0.3, SVG Export Plug-In . SVG Version: 6.00 Build 0)  -->
<svg version="1.1" id="_x31_px" xmlns="http://www.w3.org/2000/svg" xmlns:xlink="http://www.w3.org/1999/xlink" x="0px" y="0px"
	 viewBox="0 0 512 512" style="enable-background:new 0 0 512 512;" xml:space="preserve">
<style type="text/css">
	.st0{fill:#809AAC;}
</style>
<g id="XMLID_1_">
	<path class="st0" d="M416,405.3c6,0,10.7,4.9,10.7,10.7c0,6-4.7,10.7-10.7,10.7h-10.7v-21.3H416z"/>
	<path class="st0" d="M106.7,405.3h298.7v21.3H106.7V405.3z"/>
	<path class="st0" d="M426.7,266.6v14.1v135.3c0-5.8-4.7-10.7-10.7-10.7h-10.7V266.6c0-5.8-4.9-10.7-10.7-10.7H352
		c-6,0-10.7-4.7-10.7-10.7c0-5.8,4.7-10.7,10.7-10.7h42.7C412.4,234.6,426.7,249.1,426.7,266.6z"/>
	<path class="st0" d="M394.7,469.3h-85.5c-2.6-4.5-4.9-9.4-6.6-14.3c-1.5-4.3-5.8-7-10-7h102.2c5.8,0,10.7-4.7,10.7-10.7v-10.7H416
		c6,0,10.7-4.7,10.7-10.7v21.3C426.7,455,412.4,469.3,394.7,469.3z"/>
	<path class="st0" d="M298.7,185.7v80.9c0,6-4.7,10.7-10.7,10.7s-10.7-4.7-10.7-10.7v-80.9l10.7-10.7L298.7,185.7z"/>
	<path class="st0" d="M302.5,455c1.7,4.9,4.1,9.8,6.6,14.3h-23.9c-1.1-2.3-1.9-4.7-2.8-7c-1.9-5.5,0.9-11.5,6.4-13.7
		c1.3-0.4,2.3-0.6,3.6-0.6C296.7,447.9,301,450.7,302.5,455L302.5,455z"/>
	<path class="st0" d="M298.7,165.3v20.5L288,175.1l-10.7,10.7v-20.5c0-5.8,4.7-10.7,10.7-10.7S298.7,159.5,298.7,165.3L298.7,165.3z
		"/>
	<path class="st0" d="M219.3,447.9h73.2c-1.3,0-2.3,0.2-3.6,0.6c-5.5,2.1-8.3,8.1-6.4,13.7c0.9,2.3,1.7,4.7,2.8,7h-58.7
		c1.1-2.3,1.9-4.9,2.8-7.3c1.9-5.5-1.1-11.5-6.6-13.4C221.7,448.1,220.4,447.9,219.3,447.9z"/>
	<path class="st0" d="M248.5,184.5l32-32c4.1-4.3,10.9-4.3,14.9,0l32,32c4.3,4.1,4.3,10.9,0,15.1c-1.9,1.9-4.7,3-7.5,3
		c-2.8,0-5.5-1.1-7.5-3l-13.9-13.9v-20.5c0-5.8-4.7-10.7-10.7-10.7s-10.7,4.9-10.7,10.7v20.5l-13.9,13.9c-4.1,4.1-10.9,4.1-14.9,0
		C244.3,195.3,244.3,188.5,248.5,184.5z"/>
	<path class="st0" d="M234.7,305v20.3c0,6-4.7,10.7-10.7,10.7s-10.7-4.7-10.7-10.7V305l10.7,10.7L234.7,305z"/>
	<path class="st0" d="M234.7,223.9V305L224,315.7L213.3,305v-81.1c0-5.8,4.7-10.7,10.7-10.7S234.7,218.2,234.7,223.9z"/>
	<path class="st0" d="M222.7,448.6c5.5,1.9,8.5,7.9,6.6,13.4c-0.9,2.3-1.7,4.9-2.8,7.3h-23.7c2.8-4.5,4.7-9.2,6.4-14.1
		c1.5-4.5,5.5-7.3,10-7.3C220.4,447.9,221.7,448.1,222.7,448.6L222.7,448.6z"/>
	<path class="st0" d="M263.5,306.3l-32,32c-1.9,1.9-4.7,3-7.5,3c-2.8,0-5.5-1.1-7.5-3l-32-32c-4.3-4.3-4.3-10.9,0-15.1
		c4.1-4.1,10.9-4.1,14.9,0l13.9,13.9v20.3c0,6,4.7,10.7,10.7,10.7s10.7-4.7,10.7-10.7V305l13.7-13.9c4.3-4.1,11.1-4.1,15.1,0
		C267.7,295.4,267.7,302,263.5,306.3L263.5,306.3z"/>
	<path class="st0" d="M214.8,490.6h82.3c-4.7-6.6-8.7-13.9-11.9-21.3h23.9c4.7,8.7,10.9,17.1,18.3,24.5c3.2,3,4.1,7.7,2.3,11.5
		c-1.7,4.1-5.5,6.6-9.8,6.6H192c-4.3,0-8.3-2.6-9.8-6.6c-1.7-3.8-0.9-8.5,2.3-11.5c7.5-7.7,13.7-15.8,18.3-24.5h23.7
		C223.6,476.7,219.7,483.8,214.8,490.6L214.8,490.6z"/>
	<path class="st0" d="M106.7,405.3v21.3H96c-6,0-10.7-4.7-10.7-10.7c0-5.8,4.7-10.7,10.7-10.7H106.7z"/>
	<path class="st0" d="M117.3,255.9c-6,0-10.7,4.9-10.7,10.7v138.7H96c-6,0-10.7,4.9-10.7,10.7V294.8v-28.2c0-17.5,14.3-32,32-32H160
		c6,0,10.7,4.9,10.7,10.7c0,6-4.7,10.7-10.7,10.7H117.3z"/>
	<path class="st0" d="M117.3,447.9h102c-4.5,0-8.5,2.8-10,7.3c-1.7,4.9-3.6,9.6-6.4,14.1h-85.5c-17.7,0-32-14.3-32-32v-21.3
		c0,6,4.7,10.7,10.7,10.7h10.7v10.7C106.7,443.2,111.4,447.9,117.3,447.9z"/>
	<path class="st0" d="M99.4,128.4C114.1,54.5,179.8-0.1,256-0.1c59.7,0,114.8,33.7,141.9,86.4C462.3,92.9,512,147.8,512,213.3
		c0,26.7-8.1,52.1-23.3,73.6c-3.4,4.9-10,6-14.9,2.6c-3-2.1-4.5-5.3-4.5-8.7c0-2.1,0.6-4.3,1.9-6.2c12.8-17.7,19.4-39,19.4-61.2
		c0-56.3-43.9-103-100.3-106.2c-3.8-0.2-7.5-2.6-9-6.2C358.8,52.6,309.5,21.3,256,21.3c-68.7,0-127.6,51.2-137.2,118.8
		c-0.6,5.3-5.1,9.2-10.5,9.2c-48.9,0-87,38.4-87,85.3c0,19.8,6.6,38.4,19,53.5c1.5,1.9,2.3,4.3,2.3,6.6c0,3.2-1.3,6.2-3.8,8.3
		c-2.1,1.7-4.5,2.3-6.8,2.3c-3,0-6.2-1.3-8.3-3.8c-15.6-19-23.7-42-23.7-67C0,178.3,43.9,132,99.4,128.4L99.4,128.4z"/>
</g>
</svg>
