<?xml version="1.0" encoding="utf-8"?>
<!-- Generator: Adobe Illustrator 26.0.3, SVG Export Plug-In . SVG Version: 6.00 Build 0)  -->
<svg version="1.1" id="_x31_" xmlns="http://www.w3.org/2000/svg" xmlns:xlink="http://www.w3.org/1999/xlink" x="0px" y="0px"
	 viewBox="0 0 512 512" style="enable-background:new 0 0 512 512;" xml:space="preserve">
<style type="text/css">
	.st0{fill:#809AAC;}
</style>
<g>
	<g id="XMLID_1_">
		<path class="st0" d="M411.7,42.7c4.3-2.1,10.7,0,14.9,4.3v6.4c0,4.3-2.1,6.4-6.4,8.5l-14.9,8.5V46.9L411.7,42.7z"/>
		<path class="st0" d="M258.1,125.9L149.3,70.4V46.9l117.3,59.7c6.4,4.3,12.8,4.3,19.2,0l119.5-59.7v23.5l-108.8,55.5
			c-6.4,4.3-12.8,4.3-19.2,4.3S264.5,130.1,258.1,125.9z"/>
		<path class="st0" d="M458.7,320c17.1,0,32-14.9,32-32V160c0-10.7-6.4-21.3-17.1-27.7c-4.3-2.1-6.4-8.5-4.3-14.9
			c2.1-4.3,8.5-6.4,14.9-4.3c17.1,10.7,27.7,27.7,27.7,46.9v128c0,29.9-23.5,53.3-53.3,53.3h-76.8l-66.1,61.9
			c-2.1,2.1-4.3,2.1-6.4,2.1c-2.1,0-2.1,0-4.3,0c-4.3-2.1-6.4-6.4-6.4-10.7v-53.3h-32c-29.9,0-53.3-23.5-53.3-53.3v-21.3
			c0-6.4,4.3-10.7,10.7-10.7s10.7,4.3,10.7,10.7V288c0,17.1,14.9,32,32,32h42.7c6.4,0,10.7,4.3,10.7,10.7v40.5l51.2-46.9
			c2.1-2.1,4.3-2.1,6.4-2.1h81.1L458.7,320z"/>
		<path class="st0" d="M130.1,46.9c2.1-4.3,8.5-6.4,12.8-4.3l6.4,4.3v23.5l-14.9-8.5c-4.3-2.1-6.4-6.4-6.4-8.5
			C128,51.2,128,49.1,130.1,46.9z"/>
		<path class="st0" d="M160,213.3c-17.1,0-32-14.9-32-32v-128c0,4.3,2.1,6.4,6.4,8.5l14.9,8.5v110.9c0,6.4,4.3,10.7,10.7,10.7h234.7
			c6.4,0,10.7-4.3,10.7-10.7V70.4l14.9-8.5c4.3-2.1,6.4-6.4,6.4-8.5v128c0,17.1-14.9,32-32,32H160z"/>
		<path class="st0" d="M149.3,32v14.9l-6.4-4.3c-4.3-2.1-10.7,0-12.8,4.3c-2.1,2.1-2.1,4.3-2.1,6.4V32c0-17.1,14.9-32,32-32h234.7
			c17.1,0,32,14.9,32,32v21.3c0-2.1,0-4.3-2.1-4.3c-2.1-6.4-8.5-8.5-12.8-6.4l-6.4,4.3V32c0-6.4-4.3-10.7-10.7-10.7H160
			C153.6,21.3,149.3,25.6,149.3,32z"/>
		<path class="st0" d="M160,309.3c0-23.5-19.2-42.7-42.7-42.7s-42.7,19.2-42.7,42.7S93.9,352,117.3,352S160,332.8,160,309.3z
			 M117.3,373.3c-36.3,0-64-29.9-64-64s27.7-64,64-64s64,29.9,64,64S153.6,373.3,117.3,373.3z"/>
		<path class="st0" d="M213.3,501.3v-42.7c0-17.1-14.9-32-32-32h-128c-17.1,0-32,14.9-32,32v42.7c0,6.4-4.3,10.7-10.7,10.7
			S0,507.7,0,501.3v-42.7c0-29.9,23.5-53.3,53.3-53.3h128c29.9,0,53.3,23.5,53.3,53.3v42.7c0,6.4-4.3,10.7-10.7,10.7
			C217.6,512,213.3,507.7,213.3,501.3z"/>
	</g>
</g>
</svg>
