<?xml version="1.0" encoding="utf-8"?>
<!-- Generator: Adobe Illustrator 26.0.3, SVG Export Plug-In . SVG Version: 6.00 Build 0)  -->
<svg version="1.1" id="Capa_1" xmlns="http://www.w3.org/2000/svg" xmlns:xlink="http://www.w3.org/1999/xlink" x="0px" y="0px"
	 viewBox="0 0 512 512" style="enable-background:new 0 0 512 512;" xml:space="preserve">
<style type="text/css">
	.st0{fill:#809AAC;}
</style>
<g>
	<g>
		<path class="st0" d="M115.4,406.9C61.1,363.6,30,299.1,30,229.8C30,160.5,61.1,96,115.3,52.7c6.5-5.2,7.5-14.6,2.4-21.1
			c-5.2-6.5-14.6-7.5-21.1-2.4C35.2,78.2,0,151.3,0,229.8c0,78.5,35.2,151.6,96.7,200.5c6.5,5.2,15.9,4.1,21.1-2.4
			C122.9,421.5,121.8,412,115.4,406.9z"/>
	</g>
</g>
<g>
	<g>
		<path class="st0" d="M415.4,29.3c-6.5-5.2-15.9-4.1-21.1,2.4s-4.1,15.9,2.4,21.1C450.9,96,482,160.5,482,229.8
			c0,69.3-31.1,133.8-85.3,177.1c-6.5,5.2-7.5,14.6-2.4,21.1c5.2,6.5,14.6,7.5,21.1,2.4c61.4-48.9,96.6-122,96.6-200.5
			S476.8,78.2,415.4,29.3z"/>
	</g>
</g>
<g>
	<g>
		<path class="st0" d="M165.3,344.3c-35.2-28-55.3-69.7-55.3-114.5c0-44.8,20.2-86.5,55.3-114.5c6.5-5.2,7.6-14.6,2.4-21.1
			s-14.6-7.6-21.1-2.4c-42.4,33.7-66.7,84-66.7,137.9c0,54,24.3,104.2,66.7,137.9c6.5,5.2,15.9,4.1,21.1-2.4
			C172.9,358.9,171.8,349.4,165.3,344.3z"/>
	</g>
</g>
<g>
	<g>
		<path class="st0" d="M365.3,91.9c-6.5-5.2-15.9-4.1-21.1,2.4c-5.2,6.5-4.1,15.9,2.4,21.1c35.2,28,55.3,69.7,55.3,114.5
			s-20.2,86.5-55.3,114.5c-6.5,5.2-7.6,14.6-2.4,21.1c5.2,6.5,14.6,7.6,21.1,2.4c42.4-33.7,66.7-84,66.7-137.9
			S407.7,125.6,365.3,91.9z"/>
	</g>
</g>
<g>
	<g>
		<path class="st0" d="M256,155c-41.4,0-75,33.6-75,75c0,36.2,25.8,66.5,60,73.5V471c0,8.3,6.7,15,15,15s15-6.7,15-15V303.5
			c34.2-7,60-37.3,60-73.5C331,188.6,297.4,155,256,155z M256,275c-24.8,0-45-20.2-45-45s20.2-45,45-45s45,20.2,45,45
			S280.8,275,256,275z"/>
	</g>
</g>
</svg>
