<?xml version="1.0" encoding="utf-8"?>
<!-- Generator: Adobe Illustrator 26.0.3, SVG Export Plug-In . SVG Version: 6.00 Build 0)  -->
<svg version="1.1" id="_x31_" xmlns="http://www.w3.org/2000/svg" xmlns:xlink="http://www.w3.org/1999/xlink" x="0px" y="0px"
	 viewBox="0 0 512 512" style="enable-background:new 0 0 512 512;" xml:space="preserve">
<style type="text/css">
	.st0{fill:#809AAC;}
</style>
<g>
	<path class="st0" d="M85.3,405.3c-23.5,0-42.7-19.1-42.7-42.7c0-23.5,19.1-42.7,42.7-42.7s42.7,19.1,42.7,42.7
		S108.9,405.3,85.3,405.3z M85.3,341.3c-11.8,0-21.3,9.6-21.3,21.3S73.6,384,85.3,384s21.3-9.6,21.3-21.3S97.1,341.3,85.3,341.3z"/>
</g>
<g>
	<path class="st0" d="M160,512c-5.9,0-10.7-4.8-10.7-10.7V480c0-17.6-14.4-32-32-32h-64c-17.6,0-32,14.4-32,32v21.3
		c0,5.9-4.8,10.7-10.7,10.7S0,507.2,0,501.3V480c0-29.4,23.9-53.3,53.3-53.3h64c29.4,0,53.3,23.9,53.3,53.3v21.3
		C170.7,507.2,165.9,512,160,512z"/>
</g>
<g>
	<path class="st0" d="M426.7,405.3c-23.5,0-42.7-19.1-42.7-42.7c0-23.5,19.1-42.7,42.7-42.7c23.5,0,42.7,19.1,42.7,42.7
		S450.2,405.3,426.7,405.3z M426.7,341.3c-11.8,0-21.3,9.6-21.3,21.3s9.6,21.3,21.3,21.3s21.3-9.6,21.3-21.3
		S438.4,341.3,426.7,341.3z"/>
</g>
<g>
	<path class="st0" d="M501.3,512c-5.9,0-10.7-4.8-10.7-10.7V480c0-17.6-14.4-32-32-32h-64c-17.6,0-32,14.4-32,32v21.3
		c0,5.9-4.8,10.7-10.7,10.7c-5.9,0-10.7-4.8-10.7-10.7V480c0-29.4,23.9-53.3,53.3-53.3h64c29.4,0,53.3,23.9,53.3,53.3v21.3
		C512,507.2,507.2,512,501.3,512z"/>
</g>
<g>
	<path class="st0" d="M256,362.7c-5.9,0-10.7-4.8-10.7-10.7V202.7c0-5.9,4.8-10.7,10.7-10.7s10.7,4.8,10.7,10.7V352
		C266.7,357.9,261.9,362.7,256,362.7z"/>
</g>
<g>
	<path class="st0" d="M181.3,320c-5.9,0-10.7-4.8-10.7-10.7v-64c0-5.9,4.8-10.7,10.7-10.7s10.7,4.8,10.7,10.7v64
		C192,315.2,187.2,320,181.3,320z"/>
</g>
<g>
	<path class="st0" d="M330.7,320c-5.9,0-10.7-4.8-10.7-10.7v-64c0-5.9,4.8-10.7,10.7-10.7s10.7,4.8,10.7,10.7v64
		C341.3,315.2,336.6,320,330.7,320z"/>
</g>
<g>
	<path class="st0" d="M89,213.4c-9,0-17.9-3.6-24.6-10.6L9.7,146.2c-6.8-7-10.3-16.3-9.9-26.2c0.4-10.1,4.9-19.8,12.5-26.5
		c139.6-123.8,349-123.9,487.2-0.1c7.4,6.6,11.9,16.1,12.2,26.1c0.4,9.9-3.1,19.2-9.9,26.3l-53,55.7c-11.5,11.9-29.1,14.1-42.9,5.6
		l-55.5-34.3c-12-7.4-18.4-21.4-16.4-35.6l5.7-40.5C286.3,80,228,79.8,173.9,96.2l5.6,41.6c1.9,14.2-4.6,28.1-16.5,35.6l-55.7,34.7
		C101.6,211.6,95.3,213.4,89,213.4L89,213.4z M256.5,21.9c-82.1,0-164.3,29.2-230.1,87.5c-3.2,2.9-5.2,7-5.4,11.3
		c-0.1,4.1,1.3,7.8,3.9,10.6l54.7,56.6l0,0c4.3,4.5,11,5.3,16.2,2l55.7-34.8c4.9-3,7.5-8.7,6.7-14.6l-6.8-50.5
		c-0.7-5.1,2.3-9.9,7.2-11.5c63.8-21.4,133.5-21.2,196.4,0.6c4.8,1.7,7.8,6.5,7.1,11.6l-7,49.3c-0.8,5.8,1.7,11.5,6.5,14.4
		l55.5,34.3c5.2,3.2,11.9,2.3,16.3-2.2l52.9-55.7c2.8-2.9,4.2-6.7,4-10.8c-0.2-4.2-2-8.2-5.2-11C420.2,51,338.5,21.9,256.5,21.9
		L256.5,21.9z"/>
</g>
</svg>
