<?xml version="1.0" encoding="utf-8"?>
<!-- Generator: Adobe Illustrator 26.0.3, SVG Export Plug-In . SVG Version: 6.00 Build 0)  -->
<svg version="1.1" id="Layer_1" xmlns="http://www.w3.org/2000/svg" xmlns:xlink="http://www.w3.org/1999/xlink" x="0px" y="0px"
	 viewBox="0 0 512 512" style="enable-background:new 0 0 512 512;" xml:space="preserve">
<style type="text/css">
	.st0{fill:#809AAC;}
</style>
<path class="st0" d="M504.5,194.4c4.1,0,7.5-3.4,7.5-7.5v-9.8c0-10-5.1-19.2-13.6-24.5s-18.9-5.9-28-1.5l-76.5,37v-20.8
	c0-39.9-32.4-72.3-72.3-72.3H72.3C32.4,95,0,127.4,0,167.3v178.1c0,30.7,19.4,58.1,48.4,68.2c3.9,1.4,8.2-0.7,9.6-4.6
	c1.4-3.9-0.7-8.2-4.6-9.6c-22.9-8-38.3-29.8-38.3-54.1V167.3c0-31.6,25.7-57.3,57.3-57.3h249.4c31.6,0,57.3,25.7,57.3,57.3v178.1
	c0,31.6-25.7,57.3-57.3,57.3H87.3c-4.1,0-7.5,3.4-7.5,7.5c0,4.1,3.4,7.5,7.5,7.5h234.4c39.9,0,72.3-32.4,72.3-72.3v-20.8l76.5,37
	c4,1.9,8.3,2.9,12.6,2.9c5.3,0,10.6-1.5,15.3-4.4c8.5-5.3,13.6-14.5,13.6-24.5V222.7c0-4.1-3.4-7.5-7.5-7.5c-4.1,0-7.5,3.4-7.5,7.5
	v112.9c0,4.9-2.4,9.2-6.5,11.8s-9.1,2.9-13.5,0.7l-10-4.8V169.4l10-4.8c4.4-2.1,9.3-1.9,13.5,0.7c4.1,2.6,6.5,6.9,6.5,11.8v9.8
	C497,191,500.4,194.4,504.5,194.4z M452.1,336l-58-28.1V204.8l58-28.1V336z M356.4,345.4V167.3c0-19.1-15.6-34.7-34.7-34.7H72.3
	c-19.1,0-34.7,15.6-34.7,34.7v178.1c0,19.1,15.6,34.7,34.7,34.7h249.4C340.9,380.1,356.4,364.5,356.4,345.4z M52.6,345.4V167.3
	c0-10.9,8.8-19.7,19.7-19.7h249.4c10.9,0,19.7,8.8,19.7,19.7v178.1c0,10.9-8.8,19.7-19.7,19.7H72.3
	C61.4,365.1,52.6,356.2,52.6,345.4z M258.2,269.6c-9.1-9.1-23.9-9.1-33,0l-9.4,9.4c-1.5,1.5-3.8,1.7-5.5,0.6
	c-16.7-10.5-31.1-24.8-41.6-41.6c-1.1-1.8-0.9-4,0.6-5.5l9.4-9.4c9.1-9.1,9.1-23.9,0-33L159,170.5c-4.4-4.4-10.3-6.8-16.5-6.8
	c-6.2,0-12.1,2.4-16.5,6.8l-13,13c-14.8,14.8-17.4,37.6-6.3,55.3c25.9,41.3,61.4,76.8,102.7,102.7c7.4,4.6,15.6,6.9,23.8,6.9
	c11.5,0,22.9-4.5,31.6-13.1l13-13c4.4-4.4,6.8-10.3,6.8-16.5s-2.4-12.1-6.8-16.5L258.2,269.6z M267.2,311.7l-13,13
	c-9.8,9.8-25,11.6-36.8,4.2c-39.4-24.7-73.3-58.6-98-98c-7.4-11.8-5.7-26.9,4.2-36.8l13-13c1.6-1.6,3.7-2.4,5.9-2.4
	c2.2,0,4.3,0.9,5.9,2.4l19.7,19.7c3.2,3.2,3.2,8.5,0,11.8l-9.4,9.4c-6.5,6.5-7.6,16.4-2.7,24.1c11.7,18.6,27.7,34.6,46.3,46.3
	c7.7,4.8,17.6,3.7,24.1-2.7l9.4-9.4c3.2-3.2,8.5-3.2,11.8,0l19.7,19.7c1.6,1.6,2.4,3.7,2.4,5.9C269.7,308,268.8,310.1,267.2,311.7z"
	/>
</svg>
