<?xml version="1.0" encoding="utf-8"?>
<!-- Generator: Adobe Illustrator 26.0.3, SVG Export Plug-In . SVG Version: 6.00 Build 0)  -->
<svg version="1.1" id="_x31_" xmlns="http://www.w3.org/2000/svg" xmlns:xlink="http://www.w3.org/1999/xlink" x="0px" y="0px"
	 viewBox="0 0 512 512" style="enable-background:new 0 0 512 512;" xml:space="preserve">
<style type="text/css">
	.st0{fill:#809AAC;}
</style>
<g>
	<path class="st0" d="M501.3,405.3H10.7c-5.9,0-10.7-4.8-10.7-10.7c0-5.9,4.8-10.7,10.7-10.7h490.7c5.9,0,10.7,4.8,10.7,10.7
		C512,400.6,507.2,405.3,501.3,405.3z"/>
</g>
<g>
	<path class="st0" d="M458.7,405.3c-5.9,0-10.7-4.8-10.7-10.7V224c0-5.9,4.8-10.7,10.7-10.7c5.9,0,10.7,4.8,10.7,10.7v170.7
		C469.3,400.6,464.6,405.3,458.7,405.3z"/>
</g>
<g>
	<path class="st0" d="M53.3,405.3c-5.9,0-10.7-4.8-10.7-10.7V149.3c0-23.5,19.1-42.7,42.7-42.7h117.3c5.9,0,10.7,4.8,10.7,10.7
		s-4.8,10.7-10.7,10.7H85.3c-11.8,0-21.3,9.6-21.3,21.3v245.3C64,400.6,59.2,405.3,53.3,405.3z"/>
</g>
<g>
	<path class="st0" d="M234.7,298.7c-23.5,0-42.7-19.1-42.7-42.7s19.1-42.7,42.7-42.7s42.7,19.1,42.7,42.7S258.2,298.7,234.7,298.7z
		 M234.7,234.7c-11.8,0-21.3,9.6-21.3,21.3s9.6,21.3,21.3,21.3S256,267.8,256,256S246.4,234.7,234.7,234.7z"/>
</g>
<g>
	<path class="st0" d="M309.3,405.3c-5.9,0-10.7-4.8-10.7-10.7v-21.3c0-17.6-14.4-32-32-32h-64c-17.6,0-32,14.4-32,32v21.3
		c0,5.9-4.8,10.7-10.7,10.7s-10.7-4.8-10.7-10.7v-21.3c0-29.4,23.9-53.3,53.3-53.3h64c29.4,0,53.3,23.9,53.3,53.3v21.3
		C320,400.6,315.2,405.3,309.3,405.3z"/>
</g>
<g>
	<path class="st0" d="M501.3,170.7c-2.5,0-4.9-0.8-6.8-2.5L448,129.4v9.2c0,17.6-14.4,32-32,32H288c-17.6,0-32-14.4-32-32V32
		c0-17.6,14.4-32,32-32h128c17.6,0,32,14.4,32,32v9.2l46.5-38.7c3.2-2.7,7.7-3.2,11.3-1.5c3.8,1.7,6.1,5.5,6.1,9.6V160
		c0,4.1-2.4,7.9-6.1,9.7C504.4,170.3,502.9,170.7,501.3,170.7z M288,21.3c-5.9,0-10.7,4.8-10.7,10.7v106.7c0,5.9,4.8,10.7,10.7,10.7
		h128c5.9,0,10.7-4.8,10.7-10.7v-32c0-4.1,2.4-7.9,6.1-9.7c3.7-1.7,8.2-1.2,11.3,1.5l46.5,38.8V33.4l-46.5,38.7
		c-3.2,2.7-7.6,3.2-11.3,1.5c-3.8-1.7-6.1-5.5-6.1-9.6V32c0-5.9-4.8-10.7-10.7-10.7L288,21.3z"/>
</g>
</svg>
